<svg id="Layer_1" data-name="Layer 1" xmlns="http://www.w3.org/2000/svg" viewBox="0 0 603 603"><title>action_hands_up</title><circle cx="217.5" cy="170.99" r="27.5"/><path d="M252.5,345V477.12A12.87,12.87,0,0,1,239.63,490h-5.75A12.87,12.87,0,0,1,221,477.12V345Z"/><path d="M212,345V477.12A12.87,12.87,0,0,1,199.13,490h-5.76a12.87,12.87,0,0,1-12.87-12.87V345Z"/><rect x="180.5" y="206.99" width="72" height="138"/><path d="M285,240.24V333a12,12,0,1,1-24,0V208.29A33.28,33.28,0,0,1,285,240.24Z"/><path d="M172,208.29V333a12,12,0,1,1-24,0V240.24A33.28,33.28,0,0,1,172,208.29Z"/><path d="M180.5,207v44H172v-42.7A33.15,33.15,0,0,1,180.5,207Z"/><path d="M261,208.29V251h-8.5V207A33.15,33.15,0,0,1,261,208.29Z"/><circle cx="387.5" cy="170.99" r="27.5"/><path d="M422.5,345V477.12A12.87,12.87,0,0,1,409.63,490h-5.75A12.87,12.87,0,0,1,391,477.12V345Z"/><path d="M382,345V477.12A12.87,12.87,0,0,1,369.13,490h-5.76a12.87,12.87,0,0,1-12.87-12.87V345Z"/><rect x="350.5" y="206.99" width="72" height="138"/><path d="M342,208.29V333a12,12,0,1,1-24,0V240.24A33.28,33.28,0,0,1,342,208.29Z"/><path d="M350.5,207v44H342v-42.7A33.15,33.15,0,0,1,350.5,207Z"/><path d="M455,217.76V125a12,12,0,1,0-24,0v124.7A33.28,33.28,0,0,0,455,217.76Z"/><path d="M431,249.7V207h-8.5v44A33.15,33.15,0,0,0,431,249.7Z"/></svg>