<svg id="Layer_1" data-name="Layer 1" xmlns="http://www.w3.org/2000/svg" viewBox="0 0 603 603"><defs><style>.cls-1{fill:#42210b;}</style></defs><title>kid_running</title><path class="cls-1" d="M315.32,408.19v48H286.66v-48a5.15,5.15,0,0,1,5.15-5.15h18.35A5.15,5.15,0,0,1,315.32,408.19Z"/><path class="cls-1" d="M286.66,456.19h12.48v43.45a6.24,6.24,0,0,1-6.24,6.24h0a6.24,6.24,0,0,1-6.24-6.24Z"/><path class="cls-1" d="M315.32,456.19v43.45a6.24,6.24,0,0,1-6.24,6.24h0a6.24,6.24,0,0,1-6.24-6.24V456.19Z"/><rect class="cls-1" x="277.19" y="400.96" width="12.57" height="47.46" rx="6.29" ry="6.29" transform="translate(234.56 -83.57) rotate(28.23)"/><rect class="cls-1" x="313.24" y="400.96" width="12.57" height="47.46" rx="6.29" ry="6.29" transform="translate(801.91 647.77) rotate(151.77)"/><circle class="cls-1" cx="300.99" cy="387.09" r="12.94"/><path class="cls-1" d="M313.37,265.19v48H284.71v-48a5.15,5.15,0,0,1,5.15-5.15h18.35A5.15,5.15,0,0,1,313.37,265.19Z"/><path class="cls-1" d="M284.71,313.19h12.48v43.45a6.24,6.24,0,0,1-6.24,6.24h0a6.24,6.24,0,0,1-6.24-6.24Z"/><path class="cls-1" d="M313.37,313.19v28.62c0,2.27-2.79,4.11-6.24,4.11h0c-3.45,0-6.24-1.84-6.24-4.11V313.19Z"/><rect class="cls-1" x="277.77" y="258.6" width="12.57" height="36.74" rx="6.29" ry="6.29" transform="translate(164.77 -101.41) rotate(28.23)"/><rect class="cls-1" x="280.07" y="276.64" width="12.57" height="25.61" rx="6.29" ry="6.29" transform="translate(622.72 60.03) rotate(100.4)"/><circle class="cls-1" cx="299.04" cy="244.09" r="12.94"/><rect class="cls-1" x="317.14" y="277.37" width="12.57" height="26.3" rx="6.29" ry="6.29" transform="matrix(0.98, 0.18, -0.18, 0.98, 57.74, -53.6)"/><rect class="cls-1" x="309.67" y="256.69" width="12.57" height="35.4" rx="6.29" ry="6.29" transform="translate(733.39 245) rotate(135)"/><path class="cls-1" d="M313.62,131.34l-.59,48L284.37,179l.59-48a5.15,5.15,0,0,1,5.22-5.09l18.35.22A5.15,5.15,0,0,1,313.62,131.34Z"/><path class="cls-1" d="M284.37,179l12.48.15-.53,43.45a6.24,6.24,0,0,1-6.32,6.16h0a6.24,6.24,0,0,1-6.16-6.32Z"/><path class="cls-1" d="M313,179.33,312.68,208c0,2.27-2.84,4.08-6.29,4h0c-3.45,0-6.22-1.92-6.19-4.19l.35-28.62Z"/><rect class="cls-1" x="277.88" y="124.39" width="12.57" height="36.74" rx="6.29" ry="6.29" transform="translate(104.5 -119.63) rotate(28.93)"/><rect class="cls-1" x="280.02" y="142.46" width="12.57" height="25.61" rx="6.29" ry="6.29" transform="translate(493.78 -95.81) rotate(101.1)"/><circle class="cls-1" cx="299.55" cy="110.06" r="12.94" transform="translate(185.83 408.24) rotate(-89.3)"/><rect class="cls-1" x="317.08" y="143.64" width="12.57" height="26.3" rx="6.29" ry="6.29" transform="translate(36.23 -59.31) rotate(11.1)"/><rect class="cls-1" x="309.81" y="122.87" width="12.57" height="35.4" rx="6.29" ry="6.29" transform="translate(640.5 20.42) rotate(135.7)"/></svg>