<svg id="Layer_1" data-name="Layer 1" xmlns="http://www.w3.org/2000/svg" viewBox="0 0 603 603"><defs><style>.cls-1{font-size:63.29px;font-family:SVN-VeryBerry, SVN-Very Berry;}.cls-2{font-size:64.77px;font-family:TimesNewRomanPSMT, Times New Roman;}</style></defs><title>Two calculations</title><path d="M140.16,309.44c-4.85,21.62-9.39,40.09-13.1,54.58-10.24,40-14.9,52.67-24,54.58-5.5,1.15-13.09-1.52-15.28-6.55-2-4.55.08-11.81,4.37-13.1a6.55,6.55,0,0,1,6.55,2.18,6.82,6.82,0,0,1,0,8.73,8,8,0,0,1-3.38,1.75l-.29,0a7,7,0,0,1-1,.05,6.37,6.37,0,0,1-4.07-1.85c-1.9-2.25-.93-6.42,0-6.55s0,8.84,4.37,10.92a6,6,0,0,0,4.37,0c5.42-1.71,7.86-8.49,8.73-10.92,3.38-9.4,10.15-45.27,17.47-93.88Z"/><path d="M124.88,309.44c4.85-21.62,9.39-40.09,13.1-54.58,10.24-40,14.9-52.67,24-54.58,5.5-1.15,13.09,1.52,15.28,6.55,2,4.55-.08,11.81-4.37,13.1a6.55,6.55,0,0,1-6.55-2.18,6.82,6.82,0,0,1,0-8.73,8,8,0,0,1,3.38-1.75l.29,0a7,7,0,0,1,1-.05,6.37,6.37,0,0,1,4.07,1.85c1.9,2.25.93,6.42,0,6.55s0-8.84-4.37-10.92a6,6,0,0,0-4.37,0c-5.42,1.71-7.86,8.49-8.73,10.92-3.38,9.4-10.15,45.27-17.47,93.88Z"/><rect x="207.84" y="235.21" width="4.37" height="4.37"/><rect x="155.44" y="377.11" width="4.37" height="4.37"/><rect x="164.18" y="377.11" width="4.37" height="4.37"/><rect x="172.91" y="377.11" width="4.37" height="4.37"/><rect x="181.64" y="377.11" width="4.37" height="4.37"/><rect x="190.37" y="377.11" width="4.37" height="4.37"/><rect x="199.11" y="377.11" width="4.37" height="4.37"/><rect x="199.11" y="385.85" width="4.37" height="4.37"/><rect x="199.11" y="394.58" width="4.37" height="4.37"/><rect x="199.11" y="403.31" width="4.37" height="4.37"/><rect x="199.11" y="412.05" width="4.37" height="4.37"/><rect x="199.11" y="420.78" width="4.37" height="4.37"/><rect x="190.37" y="420.78" width="4.37" height="4.37"/><rect x="181.64" y="420.78" width="4.37" height="4.37"/><rect x="172.91" y="420.78" width="4.37" height="4.37"/><rect x="164.18" y="420.78" width="4.37" height="4.37"/><rect x="155.44" y="420.78" width="4.37" height="4.37"/><rect x="155.44" y="412.05" width="4.37" height="4.37"/><rect x="155.44" y="403.31" width="4.37" height="4.37"/><rect x="155.44" y="394.58" width="4.37" height="4.37"/><rect x="155.44" y="385.85" width="4.37" height="4.37"/><rect x="199.11" y="235.21" width="4.37" height="4.37"/><rect x="216.57" y="235.21" width="4.37" height="4.37"/><rect x="225.31" y="235.21" width="4.37" height="4.37"/><rect x="234.04" y="235.21" width="4.37" height="4.37"/><rect x="242.77" y="235.21" width="4.37" height="4.37"/><rect x="242.77" y="226.47" width="4.37" height="4.37"/><rect x="242.77" y="217.74" width="4.37" height="4.37"/><rect x="242.77" y="209.01" width="4.37" height="4.37"/><rect x="242.77" y="200.27" width="4.37" height="4.37"/><rect x="242.77" y="191.54" width="4.37" height="4.37"/><rect x="234.04" y="191.54" width="4.37" height="4.37"/><rect x="225.31" y="191.54" width="4.37" height="4.37"/><rect x="216.57" y="191.54" width="4.37" height="4.37"/><rect x="207.84" y="191.54" width="4.37" height="4.37"/><rect x="199.11" y="191.54" width="4.37" height="4.37"/><rect x="199.11" y="200.27" width="4.37" height="4.37"/><rect x="199.11" y="209.01" width="4.37" height="4.37"/><rect x="199.11" y="217.74" width="4.37" height="4.37"/><rect x="199.11" y="226.47" width="4.37" height="4.37"/><polygon points="468.25 299.15 460.74 307.34 458.06 303.78 417.89 250.49 417.43 249.9 417.43 243.94 426.6 243.94 431.55 250.49 465.57 295.62 468.25 299.15"/><polygon points="468.25 299.15 460.74 307.34 424.7 346.55 420.7 350.92 419 350.92 419 346.29 458.06 303.78 465.57 295.62 468.25 299.15"/><path d="M521.09,268h-2.64a32.76,32.76,0,0,0-29-17.47h21Z"/><rect x="417.43" y="243.94" width="100.43" height="6.55"/><path d="M518.9,329.08h-2.64a32.76,32.76,0,0,1-29,17.47h21Z"/><rect x="419" y="346.55" width="96.67" height="4.37"/><text class="cls-1" transform="translate(394.48 425.37)">n</text><text class="cls-2" transform="translate(435.86 433.83)">=</text><rect x="490" y="387" width="4" height="4"/><rect x="496" y="387" width="4" height="4"/><rect x="502" y="387" width="4" height="4"/><rect x="508" y="387" width="4" height="4"/><rect x="514" y="387" width="4" height="4"/><rect x="520" y="387" width="4" height="4"/><rect x="526" y="387" width="4" height="4"/><rect x="526" y="393" width="4" height="4"/><rect x="526" y="399" width="4" height="4"/><rect x="526" y="405" width="4" height="4"/><rect x="526" y="411" width="4" height="4"/><rect x="526" y="417" width="4" height="4"/><rect x="526" y="423" width="4" height="4"/><rect x="520" y="423" width="4" height="4"/><rect x="514" y="423" width="4" height="4"/><rect x="508" y="423" width="4" height="4"/><rect x="502" y="423" width="4" height="4"/><rect x="496" y="423" width="4" height="4"/><rect x="490" y="423" width="4" height="4"/><rect x="490" y="417" width="4" height="4"/><rect x="490" y="411" width="4" height="4"/><rect x="490" y="405" width="4" height="4"/><rect x="490" y="399" width="4" height="4"/><rect x="490" y="393" width="4" height="4"/><rect x="447" y="186" width="4" height="4"/><rect x="453" y="186" width="4" height="4"/><rect x="459" y="186" width="4" height="4"/><rect x="465" y="186" width="4" height="4"/><rect x="471" y="186" width="4" height="4"/><rect x="477" y="186" width="4" height="4"/><rect x="483" y="186" width="4" height="4"/><rect x="483" y="192" width="4" height="4"/><rect x="483" y="198" width="4" height="4"/><rect x="483" y="204" width="4" height="4"/><rect x="483" y="210" width="4" height="4"/><rect x="483" y="216" width="4" height="4"/><rect x="483" y="222" width="4" height="4"/><rect x="477" y="222" width="4" height="4"/><rect x="471" y="222" width="4" height="4"/><rect x="465" y="222" width="4" height="4"/><rect x="459" y="222" width="4" height="4"/><rect x="453" y="222" width="4" height="4"/><rect x="447" y="222" width="4" height="4"/><rect x="447" y="216" width="4" height="4"/><rect x="447" y="210" width="4" height="4"/><rect x="447" y="204" width="4" height="4"/><rect x="447" y="198" width="4" height="4"/><rect x="447" y="192" width="4" height="4"/></svg>